<svg fill="#000000" viewBox="0 0 24 24" id="clock-alt" data-name="Flat Line" xmlns="http://www.w3.org/2000/svg" class="icon flat-line"><g id="SVGRepo_bgCarrier" stroke-width="0"></g><g id="SVGRepo_tracerCarrier" stroke-linecap="round" stroke-linejoin="round"></g><g id="SVGRepo_iconCarrier"><path id="secondary" d="M20,12A8,8,0,0,1,4,12a7.91,7.91,0,0,1,.71-3.3,8,8,0,0,1,4-4,8,8,0,0,1,6.6,0,8,8,0,0,1,4,4A7.91,7.91,0,0,1,20,12Z" style="fill: #2ca9bc; stroke-width: 2;"></path><polyline id="primary" points="12 8 12 12 14 14" style="fill: none; stroke: #000000; stroke-linecap: round; stroke-linejoin: round; stroke-width: 2;"></polyline><path id="primary-2" data-name="primary" d="M6,3A3,3,0,0,0,4.71,8.7a8,8,0,0,1,4-4A3,3,0,0,0,6,3ZM18,3a3,3,0,0,0-2.7,1.71,8,8,0,0,1,4,4A3,3,0,0,0,18,3ZM8,19,6,21m10-2,2,2" style="fill: none; stroke: #000000; stroke-linecap: round; stroke-linejoin: round; stroke-width: 2;"></path><path id="primary-3" data-name="primary" d="M20,12A8,8,0,0,1,4,12a7.91,7.91,0,0,1,.71-3.3,8,8,0,0,1,4-4,8,8,0,0,1,6.6,0,8,8,0,0,1,4,4A7.91,7.91,0,0,1,20,12Z" style="fill: none; stroke: #000000; stroke-linecap: round; stroke-linejoin: round; stroke-width: 2;"></path></g></svg>